<svg width="97" height="20" viewBox="0 0 97 20" fill="none" xmlns="http://www.w3.org/2000/svg">
<path d="M0.075 2.7V2H7.625C9.375 2 10.725 2.39167 11.675 3.175C12.625 3.95833 13.1 5.00833 13.1 6.325V6.9C13.1 7.9 12.825 8.75 12.275 9.45C11.725 10.15 10.9333 10.65 9.9 10.95L13.025 16.9C13.225 17.2667 13.375 17.5333 13.475 17.7C13.575 17.8667 13.6667 17.975 13.75 18.025C13.85 18.0583 13.9833 18.0917 14.15 18.125L15.275 18.3V19H10.6L6.825 11.25H5V16.9C5 17.4667 5.025 17.8083 5.075 17.925C5.125 18.025 5.28333 18.0917 5.55 18.125L6.925 18.3V19H0.075V18.3L1.45 18.125C1.71667 18.0917 1.875 18.025 1.925 17.925C1.975 17.8083 2 17.4667 2 16.9V4.1C2 3.53333 1.975 3.2 1.925 3.1C1.875 2.98333 1.71667 2.90833 1.45 2.875L0.075 2.7ZM7.625 2.875H5V10.375H7.625C8.35833 10.375 8.91667 10.15 9.3 9.7C9.7 9.23333 9.9 8.38333 9.9 7.15V6.075C9.9 4.84167 9.7 4 9.3 3.55C8.91667 3.1 8.35833 2.875 7.625 2.875ZM30.0342 18.3V19H25.3842V16.8C24.9175 17.65 24.3175 18.275 23.5842 18.675C22.8508 19.0583 22.1092 19.25 21.3592 19.25C20.1758 19.25 19.2342 18.8583 18.5342 18.075C17.8342 17.275 17.4842 16.1667 17.4842 14.75V8.425C17.4842 7.85833 17.4592 7.525 17.4092 7.425C17.3592 7.30833 17.2008 7.23333 16.9342 7.2L15.5592 7.025V6.325H20.3592V14.725C20.3592 15.875 20.5175 16.7167 20.8342 17.25C21.1675 17.7667 21.6425 18.025 22.2592 18.025C22.5258 18.025 22.8342 17.9583 23.1842 17.825C23.5508 17.675 23.9175 17.4167 24.2842 17.05C24.6508 16.6667 24.9675 16.125 25.2342 15.425V8.425C25.2342 7.85833 25.2092 7.51667 25.1592 7.4C25.1092 7.28333 24.9508 7.21667 24.6842 7.2L22.8092 7.025V6.325H28.1092V16.9C28.1092 17.4667 28.1342 17.8083 28.1842 17.925C28.2342 18.025 28.3925 18.0917 28.6592 18.125L30.0342 18.3ZM34.3703 4.175C33.8536 4.175 33.437 4.01667 33.1203 3.7C32.8036 3.36667 32.6453 2.94167 32.6453 2.425C32.6453 1.90833 32.8036 1.49167 33.1203 1.175C33.437 0.858332 33.8536 0.699999 34.3703 0.699999C34.8703 0.699999 35.287 0.858332 35.6203 1.175C35.9536 1.49167 36.1203 1.90833 36.1203 2.425C36.1203 2.94167 35.9536 3.36667 35.6203 3.7C35.287 4.01667 34.8703 4.175 34.3703 4.175ZM31.0203 7.025V6.325H35.8203V16.9C35.8203 17.4667 35.8453 17.8083 35.8953 17.925C35.9453 18.025 36.1036 18.0917 36.3703 18.125L37.7453 18.3V19H31.0203V18.3L32.3953 18.125C32.662 18.0917 32.8203 18.025 32.8703 17.925C32.9203 17.8083 32.9453 17.4667 32.9453 16.9V8.425C32.9453 7.85833 32.9203 7.525 32.8703 7.425C32.8203 7.30833 32.662 7.23333 32.3953 7.2L31.0203 7.025ZM55.3516 2.7V2H60.2016V2.7L58.8266 2.875C58.5599 2.90833 58.4016 2.98333 58.3516 3.1C58.3016 3.2 58.2766 3.53333 58.2766 4.1V19H56.9016L47.7266 4.175V16.9C47.7266 17.4667 47.7516 17.8083 47.8016 17.925C47.8516 18.025 48.0099 18.0917 48.2766 18.125L49.6516 18.3V19H44.8016V18.3L46.1766 18.125C46.4432 18.0917 46.6016 18.025 46.6516 17.925C46.7016 17.8083 46.7266 17.4667 46.7266 16.9V4.1C46.7266 3.53333 46.7016 3.2 46.6516 3.1C46.6016 2.98333 46.4432 2.90833 46.1766 2.875L44.8016 2.7V2H49.8266L57.2766 13.975V4.1C57.2766 3.53333 57.2516 3.2 57.2016 3.1C57.1516 2.98333 56.9932 2.90833 56.7266 2.875L55.3516 2.7ZM72.3734 16.025C72.0734 17.1917 71.5151 18.025 70.6984 18.525C69.8818 19.0083 68.9318 19.25 67.8484 19.25C65.8484 19.25 64.3484 18.675 63.3484 17.525C62.3484 16.3583 61.8484 14.8167 61.8484 12.9V12.4C61.8484 10.4833 62.3151 8.95 63.2484 7.8C64.1984 6.65 65.5651 6.075 67.3484 6.075C68.3484 6.075 69.2318 6.275 69.9984 6.675C70.7818 7.05833 71.3901 7.61667 71.8234 8.35C72.2734 9.08333 72.4984 9.975 72.4984 11.025C72.4984 11.275 72.4818 11.5417 72.4484 11.825C72.4318 12.1083 72.3901 12.3917 72.3234 12.675H64.9234V13.4C64.9234 15.1667 65.1734 16.4417 65.6734 17.225C66.1734 17.9917 66.9818 18.375 68.0984 18.375C68.8151 18.375 69.4234 18.1667 69.9234 17.75C70.4234 17.3167 70.7068 16.5917 70.7734 15.575L72.3734 16.025ZM67.3484 6.95C66.5318 6.95 65.9234 7.325 65.5234 8.075C65.1234 8.825 64.9234 10.0667 64.9234 11.8H69.4484C69.5151 11.4667 69.5568 11.1583 69.5734 10.875C69.6068 10.575 69.6234 10.3 69.6234 10.05C69.6234 8.98333 69.4151 8.2 68.9984 7.7C68.5818 7.2 68.0318 6.95 67.3484 6.95ZM83.2309 16.4C83.0142 17.4167 82.5975 18.15 81.9809 18.6C81.3809 19.0333 80.6475 19.25 79.7809 19.25C78.8975 19.25 78.1725 19.0583 77.6059 18.675C77.0392 18.275 76.6225 17.75 76.3559 17.1C76.0892 16.45 75.9559 15.7583 75.9559 15.025V8.425C75.9559 7.85833 75.9309 7.525 75.8809 7.425C75.8309 7.30833 75.6725 7.23333 75.4059 7.2L74.0309 7.025V6.325H75.9559V3.425L78.8309 2.85V6.325H82.8309V7.2H78.8309V15.525C78.8309 16.5917 78.9642 17.3333 79.2309 17.75C79.4975 18.15 79.8392 18.35 80.2559 18.35C80.6892 18.35 81.0225 18.1833 81.2559 17.85C81.5059 17.5167 81.6642 16.9083 81.7309 16.025L83.2309 16.4ZM96.3691 12.4V12.9C96.3691 14.8167 95.8691 16.3583 94.8691 17.525C93.8858 18.675 92.4775 19.25 90.6441 19.25C88.8108 19.25 87.3941 18.675 86.3941 17.525C85.4108 16.3583 84.9191 14.8167 84.9191 12.9V12.4C84.9191 10.4833 85.4108 8.95 86.3941 7.8C87.3941 6.65 88.8108 6.075 90.6441 6.075C92.4775 6.075 93.8858 6.65 94.8691 7.8C95.8691 8.95 96.3691 10.4833 96.3691 12.4ZM93.2941 11.9C93.2941 10.1167 93.0691 8.85 92.6191 8.1C92.1691 7.33333 91.5108 6.95 90.6441 6.95C89.7941 6.95 89.1358 7.33333 88.6691 8.1C88.2191 8.85 87.9941 10.1167 87.9941 11.9V13.4C87.9941 15.1667 88.2191 16.4417 88.6691 17.225C89.1358 17.9917 89.7941 18.375 90.6441 18.375C91.5108 18.375 92.1691 17.9917 92.6191 17.225C93.0691 16.4417 93.2941 15.1667 93.2941 13.4V11.9Z" fill="black"/>
</svg>
